<?xml version="1.0" encoding="UTF-8"?><svg id="Logos" xmlns="http://www.w3.org/2000/svg" xmlns:xlink="http://www.w3.org/1999/xlink" viewBox="0 0 763.06 763.06"><defs><style>.cls-1{fill:url(#linear-gradient);}.cls-1,.cls-2{stroke-width:0px;}.cls-2{fill:#fff;}</style><linearGradient id="linear-gradient" x1="36.72" y1="738.39" x2="661.09" y2="92.2" gradientUnits="userSpaceOnUse"><stop offset="0" stop-color="#fc2d77"/><stop offset=".79" stop-color="#fe5618"/><stop offset="1" stop-color="#ff9804"/></linearGradient></defs><path class="cls-1" d="m190.74,0h381.59c105.27,0,190.73,85.46,190.73,190.73v381.59c0,105.27-85.47,190.74-190.74,190.74H190.74C85.47,763.06,0,677.59,0,572.32V190.74C0,85.47,85.47,0,190.74,0Z"/><path class="cls-2" d="m571.35,381.53h54.24c14.96,0,27.11,12.15,27.11,27.11v54.24c0,14.96-12.15,27.11-27.11,27.11h-54.24c-14.96,0-27.11-12.15-27.11-27.11v-54.24c0-14.96,12.15-27.11,27.11-27.11Z"/><path class="cls-2" d="m544.24,300.18v54.24c0,14.97-12.14,27.11-27.13,27.11h-54.23c-14.99,0-27.13,12.14-27.13,27.11v54.24c0,14.97-12.14,27.11-27.11,27.11h-54.24c-14.97,0-27.11-12.14-27.11-27.11v-54.24c0-14.97-12.14-27.11-27.11-27.11h-54.24c-14.97,0-27.11,12.14-27.11,27.11v54.24c0,14.97-12.14,27.11-27.11,27.11h-54.24c-14.97,0-27.11-12.14-27.11-27.11v-54.24c0-14.97,12.14-27.11,27.11-27.11h54.24c14.97,0,27.11-12.14,27.11-27.11v-54.24c0-14.97,12.14-27.11,27.11-27.11h54.24c14.97,0,27.11,12.14,27.11,27.11v54.24c0,14.97,12.14,27.11,27.11,27.11h54.24c14.97,0,27.11-12.14,27.11-27.11v-54.24c0-14.97,12.14-27.11,27.13-27.11h54.23c14.99,0,27.13,12.14,27.13,27.11Z"/></svg>